<?xml version="1.0" encoding="UTF-8" standalone="no"?>
<svg
   width="512" height="512" viewBox="0 0 512 512"
   version="1.1"
   id="svg17"
   sodipodi:docname="ilab-logo.svg"
   inkscape:version="1.4.3 (0d15f75, 2025-12-25)"
   xmlns:inkscape="http://www.inkscape.org/namespaces/inkscape"
   xmlns:sodipodi="http://sodipodi.sourceforge.net/DTD/sodipodi-0.0.dtd"
   xmlns="http://www.w3.org/2000/svg"
   xmlns:svg="http://www.w3.org/2000/svg">
  <defs id="defs17" />
  <sodipodi:namedview id="namedview17"
     pagecolor="#ffffff" bordercolor="#000000" borderopacity="0.25"
     inkscape:showpageshadow="2" inkscape:pageopacity="0.0"
     inkscape:pagecheckerboard="0" inkscape:deskcolor="#d1d1d1"
     inkscape:current-layer="svg17" />

  <!-- OUTER HEX GLOW RINGS — your exact colors -->
  <polygon
     points="256,4 468,126 468,378 256,500 44,378 44,126"
     fill="none" stroke="#ff6b00" stroke-width="3" opacity="0.20"
     id="polygon1" style="fill:#ffb380" />
  <polygon
     points="256,12 460,131 460,373 256,492 52,373 52,131"
     fill="none" stroke="#ff6b00" stroke-width="2" opacity="0.35"
     id="polygon2" style="fill:#ff7f2a" />

  <!-- MAIN HEX BACKGROUND — your exact color -->
  <polygon
     points="256,30 450,140 450,362 256,472 62,362 62,140"
     fill="#120024" id="polygon3" style="fill:#000080" />

  <!-- INNER HEX OUTLINE — your exact -->
  <polygon
     points="256,58 422,152 422,350 256,444 90,350 90,152"
     fill="none" stroke="#ff6b00" stroke-width="1.2" opacity="0.18"
     id="polygon4" />

  <!-- CORNER DOTS — changed to WHITE so visible on orange border -->
  <circle cx="256" cy="30"  r="9" fill="#ff6b00" id="circle4" />
  <circle cx="450" cy="140" r="9" fill="#ff6b00" id="circle5" />
  <circle cx="450" cy="362" r="9" fill="#ff6b00" id="circle6" />
  <circle cx="256" cy="472" r="9" fill="#ff6b00" id="circle7" />
  <circle cx="62"  cy="362" r="9" fill="#ff6b00" id="circle8" />
  <circle cx="62"  cy="140" r="9" fill="#ff6b00" id="circle9" />

  <!-- ORBIT 1 — your exact -->
  <ellipse cx="256" cy="224" rx="138" ry="44"
     fill="none" stroke="#ff6b00" stroke-width="3.5" opacity="0.95"
     id="ellipse9" />
  <circle cx="394" cy="224" r="16" fill="#ff6b00" id="circle10" />

  <!-- ORBIT 2 — your exact -->
  <ellipse cx="256" cy="224" rx="138" ry="44"
     fill="none" stroke="#ff9a3c" stroke-width="3" opacity="0.85"
     transform="rotate(60 256 224)" id="ellipse10" />
  <circle cx="179.16718" cy="294.86069" r="15" fill="#ff9a3c" id="circle11" />

  <!-- ORBIT 3 — your exact -->
  <ellipse cx="256" cy="224" rx="138" ry="44"
     fill="none" stroke="#ffba6e" stroke-width="2.5" opacity="0.75"
     transform="rotate(-60 256 224)" id="ellipse11" />
  <circle cx="325" cy="105" r="14" fill="#ffba6e" id="circle12" />

  <!-- NUCLEUS — your exact -->
  <circle cx="256" cy="224" r="38" fill="#ff6b00" opacity="0.10" id="circle13" />
  <circle cx="256" cy="224" r="26" fill="#ff6b00" opacity="0.22" id="circle14" />
  <circle cx="256" cy="224" r="16" fill="#ff8c00" opacity="0.80" id="circle15" />
  <circle cx="256" cy="224" r="9"  fill="#ffb347"              id="circle16" />

  <!-- iLab TEXT — CHANGED: y moved up to 415 (was 405), font bigger 92px (was 72px), i and Lab tight together -->
  <text
     x="256" y="415"
     text-anchor="middle"
     font-family="'-apple-system', BlinkMacSystemFont, Arial, sans-serif"
     font-size="92px"
     font-weight="700"
     id="text17"><tspan
       font-style="italic"
       fill="#ff6b00"
       id="tspan16">i</tspan><tspan
       fill="#ffffff"
       dx="-5"
       id="tspan17">Lab</tspan></text>

</svg>
